<mxfile host="app.diagrams.net" agent="Mozilla/5.0 (X11; Linux x86_64; rv:138.0) Gecko/20100101 Firefox/138.0" version="27.0.6">
  <diagram name="Page-1" id="OcrZBzBoFkhqhQcsWPbA">
    <mxGraphModel dx="1018" dy="970" grid="1" gridSize="10" guides="1" tooltips="1" connect="1" arrows="1" fold="1" page="1" pageScale="1" pageWidth="850" pageHeight="1100" math="0" shadow="0">
      <root>
        <mxCell id="0" />
        <mxCell id="1" parent="0" />
        <mxCell id="BSKz8BVAgVVA-enuUMN3-1" value="AI model - API" style="verticalAlign=top;align=left;spacingTop=8;spacingLeft=2;spacingRight=12;shape=cube;size=10;direction=south;fontStyle=4;html=1;whiteSpace=wrap;" vertex="1" parent="1">
          <mxGeometry x="390" y="600" width="180" height="120" as="geometry" />
        </mxCell>
        <mxCell id="BSKz8BVAgVVA-enuUMN3-2" value="Vue - Frontend" style="verticalAlign=top;align=left;spacingTop=8;spacingLeft=2;spacingRight=12;shape=cube;size=10;direction=south;fontStyle=4;html=1;whiteSpace=wrap;" vertex="1" parent="1">
          <mxGeometry x="10" y="600" width="180" height="120" as="geometry" />
        </mxCell>
        <mxCell id="BSKz8BVAgVVA-enuUMN3-3" value="Elastic Search" style="verticalAlign=top;align=left;spacingTop=8;spacingLeft=2;spacingRight=12;shape=cube;size=10;direction=south;fontStyle=4;html=1;whiteSpace=wrap;" vertex="1" parent="1">
          <mxGeometry x="390" y="310" width="180" height="120" as="geometry" />
        </mxCell>
        <mxCell id="BSKz8BVAgVVA-enuUMN3-4" value="Kibana" style="verticalAlign=top;align=left;spacingTop=8;spacingLeft=2;spacingRight=12;shape=cube;size=10;direction=south;fontStyle=4;html=1;whiteSpace=wrap;" vertex="1" parent="1">
          <mxGeometry x="390" y="100" width="180" height="120" as="geometry" />
        </mxCell>
        <mxCell id="BSKz8BVAgVVA-enuUMN3-5" value="APM Agent" style="verticalAlign=top;align=left;spacingTop=8;spacingLeft=2;spacingRight=12;shape=cube;size=10;direction=south;fontStyle=4;html=1;whiteSpace=wrap;" vertex="1" parent="1">
          <mxGeometry x="90" y="320" width="180" height="120" as="geometry" />
        </mxCell>
        <mxCell id="BSKz8BVAgVVA-enuUMN3-6" value="Model/Model Trainer" style="verticalAlign=top;align=left;spacingTop=8;spacingLeft=2;spacingRight=12;shape=cube;size=10;direction=south;fontStyle=4;html=1;whiteSpace=wrap;" vertex="1" parent="1">
          <mxGeometry x="380" y="840" width="180" height="120" as="geometry" />
        </mxCell>
        <mxCell id="BSKz8BVAgVVA-enuUMN3-8" value="Raw/Structured Email" style="endArrow=block;endFill=1;html=1;edgeStyle=orthogonalEdgeStyle;align=left;verticalAlign=top;rounded=0;exitX=0.25;exitY=0;exitDx=0;exitDy=0;exitPerimeter=0;entryX=0.243;entryY=0.999;entryDx=0;entryDy=0;entryPerimeter=0;" edge="1" parent="1" source="BSKz8BVAgVVA-enuUMN3-2" target="BSKz8BVAgVVA-enuUMN3-1">
          <mxGeometry x="-1" relative="1" as="geometry">
            <mxPoint x="200" y="630" as="sourcePoint" />
            <mxPoint x="360" y="630" as="targetPoint" />
          </mxGeometry>
        </mxCell>
        <mxCell id="BSKz8BVAgVVA-enuUMN3-10" value="Prediction + Reasons" style="endArrow=block;endFill=1;html=1;edgeStyle=orthogonalEdgeStyle;align=left;verticalAlign=top;rounded=0;entryX=0.667;entryY=0;entryDx=0;entryDy=0;entryPerimeter=0;exitX=0.665;exitY=0.977;exitDx=0;exitDy=0;exitPerimeter=0;" edge="1" parent="1" source="BSKz8BVAgVVA-enuUMN3-1" target="BSKz8BVAgVVA-enuUMN3-2">
          <mxGeometry x="0.875" relative="1" as="geometry">
            <mxPoint x="360" y="680" as="sourcePoint" />
            <mxPoint x="200" y="680" as="targetPoint" />
            <mxPoint as="offset" />
          </mxGeometry>
        </mxCell>
        <mxCell id="BSKz8BVAgVVA-enuUMN3-12" value="Train Model" style="html=1;verticalAlign=bottom;endArrow=block;curved=0;rounded=0;exitX=0;exitY=0;exitDx=0;exitDy=85;exitPerimeter=0;entryX=0;entryY=0;entryDx=120;entryDy=95;entryPerimeter=0;" edge="1" parent="1" source="BSKz8BVAgVVA-enuUMN3-6" target="BSKz8BVAgVVA-enuUMN3-1">
          <mxGeometry width="80" relative="1" as="geometry">
            <mxPoint x="470" y="810" as="sourcePoint" />
            <mxPoint x="550" y="810" as="targetPoint" />
          </mxGeometry>
        </mxCell>
        <mxCell id="BSKz8BVAgVVA-enuUMN3-14" value="Traces + Metrics" style="html=1;verticalAlign=bottom;endArrow=block;curved=0;rounded=0;exitX=0;exitY=0;exitDx=0;exitDy=85;exitPerimeter=0;entryX=0.987;entryY=0.904;entryDx=0;entryDy=0;entryPerimeter=0;" edge="1" parent="1" source="BSKz8BVAgVVA-enuUMN3-2" target="BSKz8BVAgVVA-enuUMN3-5">
          <mxGeometry width="80" relative="1" as="geometry">
            <mxPoint x="130" y="560" as="sourcePoint" />
            <mxPoint x="210" y="560" as="targetPoint" />
          </mxGeometry>
        </mxCell>
        <mxCell id="BSKz8BVAgVVA-enuUMN3-15" value="Traces + Metrics" style="html=1;verticalAlign=bottom;endArrow=block;curved=0;rounded=0;exitX=-0.006;exitY=0.722;exitDx=0;exitDy=0;exitPerimeter=0;entryX=0;entryY=0;entryDx=120;entryDy=95;entryPerimeter=0;" edge="1" parent="1" source="BSKz8BVAgVVA-enuUMN3-1" target="BSKz8BVAgVVA-enuUMN3-5">
          <mxGeometry width="80" relative="1" as="geometry">
            <mxPoint x="430" y="560" as="sourcePoint" />
            <mxPoint x="490" y="530" as="targetPoint" />
            <Array as="points">
              <mxPoint x="440" y="560" />
              <mxPoint x="175" y="560" />
            </Array>
          </mxGeometry>
        </mxCell>
        <mxCell id="BSKz8BVAgVVA-enuUMN3-16" value="Monitoring Data" style="html=1;verticalAlign=bottom;endArrow=block;curved=0;rounded=0;exitX=0;exitY=0;exitDx=55;exitDy=0;exitPerimeter=0;entryX=0;entryY=0;entryDx=65;entryDy=180;entryPerimeter=0;" edge="1" parent="1" source="BSKz8BVAgVVA-enuUMN3-5" target="BSKz8BVAgVVA-enuUMN3-3">
          <mxGeometry width="80" relative="1" as="geometry">
            <mxPoint x="280" y="379.38" as="sourcePoint" />
            <mxPoint x="360" y="379.38" as="targetPoint" />
          </mxGeometry>
        </mxCell>
        <mxCell id="BSKz8BVAgVVA-enuUMN3-17" value="Data for Display" style="html=1;verticalAlign=bottom;endArrow=block;curved=0;rounded=0;exitX=0;exitY=0;exitDx=0;exitDy=85;exitPerimeter=0;entryX=0.917;entryY=0.472;entryDx=0;entryDy=0;entryPerimeter=0;" edge="1" parent="1" source="BSKz8BVAgVVA-enuUMN3-3" target="BSKz8BVAgVVA-enuUMN3-4">
          <mxGeometry width="80" relative="1" as="geometry">
            <mxPoint x="500" y="280" as="sourcePoint" />
            <mxPoint x="620" y="280" as="targetPoint" />
          </mxGeometry>
        </mxCell>
      </root>
    </mxGraphModel>
  </diagram>
</mxfile>
